AKA The Kung Fu Kid - International 

Work causes a single mother to move to China with her young son; in his new home, the boy embraces kung fu, taught to him by a master.
 
http://www.imdb.com/title/tt1155076/

Subtitles (srt) : Dutch, English.

Covers included.

Dre (Jaden Smith) is een skateboardende, gameverslaafde jongen die gedwongen is naar China te verhuizen, omdat zijn moeder (Taraji P. Henson) daar voor haar werk heen moet. Dre past zich maar moeilijk aan en wordt in elkaar geslagen door de plaatselijke pestkop. Mr. Han (Jackie Chan) is een klusjesman die Dre’s blauwe oog ziet en hem aanbiedt om hem martial arts en de Chinese taal te leren. Op deze manier kan Dre zich verdedigen tegen de leerlingen van de Li Quan Ha’s Fighting Dragon School of Kung-Fu.
 
http://www.moviemeter.nl/film/61948

Ondertitels (srt) : Engels, Nederlands.

Hoesjes bijgevoegd.

General
Complete name                    : The Karate Kid-AC3-XviD-BRRip[Eng]2010 2Lions-Team\The Karate Kid-AC3-XviD-BRRip[Eng]2010 2Lions-Team.avi
Format                           : AVI
Format/Info                      : Audio Video Interleave
File size                        : 1.36 GiB
Duration                         : 2h 12mn
Overall bit rate                 : 1 473 Kbps
Writing application              : VirtualDubMod 1.5.4.1 (build 2178/release)
Writing library                  : VirtualDubMod build 2178/release
Source                           : The.Karate.Kid.2010.720p.BluRay.x264.DTS-WiKi

Video
ID                               : 0
Format                           : MPEG-4 Visual
Format profile                   : Simple@L3
Format settings, BVOP            : No
Format settings, QPel            : No
Format settings, GMC             : No warppoints
Format settings, Matrix          : Default (H.263)
Codec ID                         : XVID
Codec ID/Hint                    : XviD
Duration                         : 2h 12mn
Bit rate                         : 1 016 Kbps
Width                            : 720 pixels
Height                           : 304 pixels
Display aspect ratio             : 2.35:1
Frame rate                       : 23.976 fps
Resolution                       : 8 bits
Colorimetry                      : 4:2:0
Scan type                        : Progressive
Bits/(Pixel*Frame)               : 0.194
Stream size                      : 963 MiB (69%)
Writing library                  : XviD 1.1.2 (UTC 2006-11-01)

Audio
ID                               : 1
Format                           : AC-3
Format/Info                      : Audio Coding 3
Format_Settings_ModeExtension    : CM (complete main)
Codec ID                         : 2000
Duration                         : 2h 12mn
Bit rate mode                    : Constant
Bit rate                         : 448 Kbps
Channel(s)                       : 6 channels
Channel positions                : Front: L C R, Side: L R, LFE
Sampling rate                    : 48.0 KHz
Stream size                      : 425 MiB (30%)
Alignment                        : Split accross interleaves
Interleave, duration             : 42 ms (1.00 video frame)
Interleave, preload duration     : 500 ms

Brought to you by 
2Lions Team

meer zien??
                   
Kom dan eens kijken op ons NIEUWE forum 
            
http://www.2lions-site.nl/

2Lions the site to be for all your Dutch MOVIES and more

******************************************

DON T HIT AND RUN Niet gelijk afhaken als de FILM binnen is blijf seeden. 

Don`t quit after you finished the download, but keep seeding

There are fake torrents from uploaders who use our team name.
Those are not ours, or members from our team.
We 2Lions-Team are not responsible for the fake posts on our name

Wij 2Lions-Team zijn niet verantwoordelijk voor die zieke FAKE posten die op onze naam worden gedaan

Please check our site !!!

to the fakers , get a life !!!